<svg xmlns="http://www.w3.org/2000/svg" viewBox="0 0 32 32" width="32" height="32">
  <!-- 背景圆形 -->
  <circle cx="16" cy="16" r="15" fill="#7c3aed" stroke="#5b21b6" stroke-width="1"/>
  
  <!-- 大脑图标 -->
  <path d="M16 6c-2 0-3.5 1-4.5 2.5-1-1.5-2.5-2.5-4.5-2.5-1.5 0-3 1-3.5 2.5 0 3 2 5.5 4.5 6.5 1 0.5 2 1 3 1.5 0.5 0.5 1 1 1.5 1.5 0.5-0.5 1-1 1.5-1.5 1-0.5 2-1 3-1.5 2.5-1 4.5-3.5 4.5-6.5-0.5-1.5-2-2.5-3.5-2.5-2 0-3.5 1-4.5 2.5-1-1.5-2.5-2.5-4.5-2.5z" fill="white"/>
  
  <!-- 笔记线条 -->
  <rect x="8" y="20" width="16" height="1" fill="white" opacity="0.8"/>
  <rect x="8" y="22" width="12" height="1" fill="white" opacity="0.6"/>
  <rect x="8" y="24" width="14" height="1" fill="white" opacity="0.4"/>
  
  <!-- AI 装饰点 -->
  <circle cx="12" cy="10" r="1" fill="white" opacity="0.7"/>
  <circle cx="20" cy="10" r="1" fill="white" opacity="0.7"/>
</svg>
